<svg width="171" height="122" viewBox="0 0 171 122" fill="none" xmlns="http://www.w3.org/2000/svg">
<path d="M3.66477 67.1818H11.0369L14.0625 79.5398H14.3182L21.4347 67.1818H28.8068L25.1847 89H19.3892L21.4773 76.3864H21.3068L14.4034 88.8295H10.9091L8.1392 76.3011H7.96875L5.83807 89H0.0426136L3.66477 67.1818ZM27.9918 89L31.614 67.1818H47.3384L46.5288 71.9545H36.7276L36.131 75.7045H45.1225L44.3129 80.4773H35.3214L34.7248 84.2273H44.4833L43.6737 89H27.9918ZM46.6539 89L50.2761 67.1818H56.1994L53.3869 84.2273H62.2079L61.3983 89H46.6539ZM63.7926 89L67.4148 67.1818H73.3381L71.9318 75.7045H79.7727L81.179 67.1818H87.1023L83.4801 89H77.5568L78.9631 80.4773H71.1222L69.7159 89H63.7926ZM109.176 78.4744C108.778 80.8466 107.99 82.8352 106.811 84.4403C105.632 86.0455 104.201 87.2564 102.518 88.0732C100.835 88.8899 99.0341 89.2983 97.1165 89.2983C95.071 89.2983 93.2955 88.8544 91.7898 87.9666C90.2841 87.0788 89.1868 85.7791 88.4979 84.0675C87.8089 82.3558 87.6705 80.2642 88.0824 77.7926C88.4659 75.4205 89.2472 73.4247 90.4261 71.8054C91.6051 70.1861 93.0433 68.9609 94.7408 68.13C96.4382 67.299 98.2528 66.8835 100.185 66.8835C102.216 66.8835 103.981 67.331 105.479 68.2259C106.985 69.1207 108.079 70.4311 108.761 72.157C109.45 73.8828 109.588 75.9886 109.176 78.4744ZM103.21 77.7926C103.409 76.5426 103.423 75.4915 103.253 74.6392C103.082 73.7798 102.724 73.1335 102.177 72.7003C101.63 72.2599 100.895 72.0398 99.9716 72.0398C98.9205 72.0398 97.9901 72.2955 97.1804 72.8068C96.3707 73.3182 95.6996 74.0533 95.1669 75.0121C94.6342 75.9709 94.2614 77.125 94.0483 78.4744C93.821 79.7386 93.7997 80.7898 93.9844 81.6278C94.1761 82.4659 94.5526 83.0945 95.1136 83.5135C95.6818 83.9325 96.4205 84.142 97.3295 84.142C98.3665 84.142 99.2827 83.8935 100.078 83.3963C100.881 82.8991 101.545 82.1783 102.07 81.2337C102.603 80.2891 102.983 79.142 103.21 77.7926ZM110.17 89L113.792 67.1818H123.209C124.829 67.1818 126.196 67.4766 127.311 68.0661C128.426 68.6555 129.229 69.5043 129.719 70.6122C130.209 71.7202 130.326 73.0483 130.07 74.5966C129.814 76.1591 129.25 77.4766 128.376 78.549C127.51 79.6143 126.405 80.424 125.063 80.978C123.728 81.5249 122.229 81.7983 120.567 81.7983H114.942L115.709 77.196H120.141C120.837 77.196 121.448 77.1108 121.974 76.9403C122.499 76.7628 122.925 76.4858 123.252 76.1094C123.579 75.7259 123.792 75.2216 123.891 74.5966C123.991 73.9716 123.941 73.4638 123.742 73.0732C123.543 72.6754 123.213 72.3842 122.751 72.1996C122.29 72.0078 121.718 71.9119 121.036 71.9119H118.948L116.093 89H110.17ZM124.616 78.9858L128.408 89H121.974L118.309 78.9858H124.616ZM130.502 89L134.124 67.1818H149.848L149.039 71.9545H139.237L138.641 75.7045H147.632L146.823 80.4773H137.831L137.235 84.2273H146.993L146.183 89H130.502ZM163.397 74C163.461 73.2969 163.29 72.7464 162.885 72.3487C162.48 71.9439 161.799 71.7415 160.84 71.7415C160.229 71.7415 159.718 71.8125 159.306 71.9545C158.901 72.0966 158.585 72.2919 158.358 72.5405C158.137 72.7891 157.999 73.0767 157.942 73.4034C157.878 73.6591 157.882 73.8935 157.953 74.1065C158.031 74.3125 158.176 74.5007 158.39 74.6712C158.61 74.8416 158.897 74.9943 159.252 75.1293C159.615 75.2642 160.044 75.3849 160.542 75.4915L162.246 75.875C163.411 76.1307 164.387 76.468 165.176 76.8871C165.971 77.299 166.596 77.7891 167.051 78.3572C167.505 78.9254 167.804 79.5611 167.946 80.2642C168.095 80.9673 168.098 81.7344 167.956 82.5653C167.715 84 167.157 85.2145 166.284 86.2088C165.41 87.2031 164.27 87.9595 162.864 88.478C161.458 88.9964 159.831 89.2557 157.985 89.2557C156.096 89.2557 154.49 88.9751 153.169 88.4141C151.855 87.8459 150.904 86.9794 150.314 85.8146C149.732 84.6428 149.59 83.1477 149.888 81.3295H155.513C155.428 81.9972 155.499 82.5582 155.726 83.0128C155.953 83.4673 156.319 83.8118 156.824 84.0462C157.328 84.2805 157.956 84.3977 158.709 84.3977C159.348 84.3977 159.895 84.3196 160.35 84.1634C160.804 84.0071 161.163 83.7905 161.426 83.5135C161.689 83.2365 161.848 82.9205 161.905 82.5653C161.962 82.2386 161.905 81.9474 161.735 81.6918C161.564 81.4361 161.255 81.2053 160.808 80.9993C160.36 80.7933 159.746 80.6051 158.965 80.4347L156.877 79.9659C155.023 79.5398 153.624 78.8366 152.679 77.8565C151.735 76.8764 151.401 75.5341 151.678 73.8295C151.905 72.4375 152.477 71.223 153.393 70.1861C154.316 69.142 155.488 68.3324 156.909 67.7571C158.336 67.1747 159.917 66.8835 161.65 66.8835C163.411 66.8835 164.885 67.1783 166.071 67.7678C167.264 68.3572 168.12 69.1847 168.638 70.25C169.164 71.3153 169.306 72.5653 169.064 74H163.397Z" fill="#EEAF0E"/>
<path d="M0.03125 116L2.6875 100H9.59375C10.7813 100 11.7813 100.234 12.5938 100.703C13.4063 101.172 13.9896 101.831 14.3438 102.68C14.6979 103.529 14.7813 104.521 14.5938 105.656C14.4063 106.812 13.9896 107.81 13.3438 108.648C12.7031 109.482 11.8854 110.125 10.8906 110.578C9.90104 111.026 8.79167 111.25 7.5625 111.25H3.4375L4 107.875H7.25C7.77083 107.875 8.22917 107.786 8.625 107.609C9.02083 107.427 9.34115 107.172 9.58594 106.844C9.83073 106.51 9.98958 106.115 10.0625 105.656C10.1354 105.198 10.1016 104.807 9.96094 104.484C9.82552 104.156 9.59115 103.906 9.25781 103.734C8.92969 103.557 8.51042 103.469 8 103.469H6.46875L4.375 116H0.03125ZM14.4688 116L17.125 100H21.4688L19.4063 112.5H25.875L25.2813 116H14.4688ZM31.1934 116H26.5059L34.4434 100H40.3809L43.0059 116H38.3184L36.7559 104.406H36.6309L31.1934 116ZM31.3809 109.688H40.1934L39.6309 112.937H30.8184L31.3809 109.688ZM44.1523 103.5L44.7461 100H58.6523L58.0586 103.5H53.2461L51.1836 116H46.9023L48.9648 103.5H44.1523ZM59.7676 116H55.0801L63.0176 100H68.9551L71.5801 116H66.8926L65.3301 104.406H65.2051L59.7676 116ZM59.9551 109.688H68.7676L68.2051 112.937H59.3926L59.9551 109.688ZM73.1211 116L75.7773 100H87.0273L86.4336 103.5H79.5273L79.0898 106.25H85.3086L84.7148 109.75H78.4961L77.4648 116H73.1211ZM102.75 108.281C102.458 110.021 101.88 111.479 101.016 112.656C100.151 113.833 99.1016 114.721 97.8672 115.32C96.6328 115.919 95.3125 116.219 93.9062 116.219C92.4063 116.219 91.1042 115.893 90 115.242C88.8958 114.591 88.0911 113.638 87.5859 112.383C87.0807 111.128 86.9792 109.594 87.2813 107.781C87.5625 106.042 88.1354 104.578 89 103.391C89.8646 102.203 90.9193 101.305 92.1641 100.695C93.4089 100.086 94.7396 99.7812 96.1563 99.7812C97.6458 99.7812 98.9401 100.109 100.039 100.766C101.143 101.422 101.945 102.383 102.445 103.648C102.951 104.914 103.052 106.458 102.75 108.281ZM98.375 107.781C98.5208 106.865 98.5313 106.094 98.4063 105.469C98.2812 104.839 98.0182 104.365 97.6172 104.047C97.2161 103.724 96.6771 103.562 96 103.562C95.2292 103.562 94.5469 103.75 93.9531 104.125C93.3594 104.5 92.8672 105.039 92.4766 105.742C92.0859 106.445 91.8125 107.292 91.6563 108.281C91.4896 109.208 91.474 109.979 91.6094 110.594C91.75 111.208 92.026 111.669 92.4375 111.977C92.8542 112.284 93.3958 112.437 94.0625 112.437C94.8229 112.437 95.4948 112.255 96.0781 111.891C96.6667 111.526 97.1536 110.997 97.5391 110.305C97.9297 109.612 98.2083 108.771 98.375 107.781ZM103.479 116L106.135 100H113.041C114.229 100 115.231 100.216 116.049 100.648C116.867 101.081 117.455 101.703 117.814 102.516C118.174 103.328 118.26 104.302 118.072 105.437C117.885 106.583 117.471 107.549 116.83 108.336C116.195 109.117 115.385 109.711 114.4 110.117C113.421 110.518 112.322 110.719 111.104 110.719H106.979L107.541 107.344H110.791C111.301 107.344 111.749 107.281 112.135 107.156C112.52 107.026 112.833 106.823 113.072 106.547C113.312 106.266 113.468 105.896 113.541 105.437C113.614 104.979 113.577 104.607 113.432 104.32C113.286 104.029 113.044 103.815 112.705 103.68C112.367 103.539 111.947 103.469 111.447 103.469H109.916L107.822 116H103.479ZM114.072 108.656L116.854 116H112.135L109.447 108.656H114.072ZM121.045 100H126.451L128.67 109.063H128.857L134.076 100H139.482L136.826 116H132.576L134.107 106.75H133.982L128.92 115.875H126.357L124.326 106.687H124.201L122.639 116H118.389L121.045 100ZM143.041 116H138.354L146.291 100H152.229L154.854 116H150.166L148.604 104.406H148.479L143.041 116ZM143.229 109.688H152.041L151.479 112.937H142.666L143.229 109.688ZM166.209 105C166.256 104.484 166.131 104.081 165.834 103.789C165.537 103.492 165.037 103.344 164.334 103.344C163.886 103.344 163.511 103.396 163.209 103.5C162.912 103.604 162.68 103.747 162.514 103.93C162.352 104.112 162.251 104.323 162.209 104.562C162.162 104.75 162.165 104.922 162.217 105.078C162.274 105.229 162.381 105.367 162.537 105.492C162.699 105.617 162.91 105.729 163.17 105.828C163.436 105.927 163.751 106.016 164.115 106.094L165.365 106.375C166.219 106.562 166.936 106.81 167.514 107.117C168.097 107.419 168.555 107.779 168.889 108.195C169.222 108.612 169.441 109.078 169.545 109.594C169.654 110.109 169.657 110.672 169.553 111.281C169.376 112.333 168.967 113.224 168.326 113.953C167.686 114.682 166.85 115.237 165.818 115.617C164.787 115.997 163.594 116.188 162.24 116.188C160.855 116.188 159.678 115.982 158.709 115.57C157.745 115.154 157.048 114.518 156.615 113.664C156.188 112.805 156.084 111.708 156.303 110.375H160.428C160.365 110.865 160.417 111.276 160.584 111.609C160.751 111.943 161.019 112.195 161.389 112.367C161.758 112.539 162.219 112.625 162.771 112.625C163.24 112.625 163.641 112.568 163.975 112.453C164.308 112.339 164.571 112.18 164.764 111.977C164.956 111.773 165.074 111.542 165.115 111.281C165.157 111.042 165.115 110.828 164.99 110.641C164.865 110.453 164.639 110.284 164.311 110.133C163.982 109.982 163.532 109.844 162.959 109.719L161.428 109.375C160.068 109.062 159.042 108.547 158.35 107.828C157.657 107.109 157.412 106.125 157.615 104.875C157.782 103.854 158.201 102.964 158.873 102.203C159.55 101.437 160.41 100.844 161.451 100.422C162.498 99.9948 163.657 99.7812 164.928 99.7812C166.219 99.7812 167.3 99.9974 168.17 100.43C169.045 100.862 169.673 101.469 170.053 102.25C170.438 103.031 170.542 103.948 170.365 105H166.209Z" fill="white"/>
<path d="M48.1761 18.2509L40.1941 8.10845C40.801 7.39595 41.1925 6.52277 41.3221 5.59255C41.4517 4.66233 41.3141 3.71412 40.9254 2.86047C40.5367 2.00682 39.9134 1.28356 39.1295 0.776533C38.3455 0.269506 37.4337 0 36.5024 0C35.5711 0 34.6594 0.269506 33.8754 0.776533C33.0914 1.28356 32.4681 2.00682 32.0795 2.86047C31.6908 3.71412 31.5531 4.66233 31.6827 5.59255C31.8124 6.52277 32.2039 7.39595 32.8108 8.10845L24.8288 18.2509C24.4877 18.6863 24.0104 18.9922 23.4747 19.1188C22.9391 19.2454 22.3767 19.1852 21.8793 18.9481L9.65815 13.1355C9.8373 12.1248 9.69778 11.0829 9.25922 10.1564C8.82065 9.22982 8.10513 8.4653 7.2133 7.97035C6.32148 7.4754 5.29826 7.27494 4.2876 7.39719C3.27694 7.51943 2.3297 7.95821 1.57918 8.6518C0.828654 9.34539 0.312611 10.2589 0.103656 11.2637C-0.1053 12.2686 0.00335101 13.3142 0.41432 14.2536C0.825289 15.1929 1.51789 15.9786 2.39468 16.5002C3.27147 17.0217 4.28831 17.2529 5.30214 17.1611L11.6293 49.0711C11.9057 50.46 12.65 51.7097 13.7358 52.608C14.8216 53.5064 16.1822 53.9982 17.5866 54H55.4037C56.8104 54.0003 58.1738 53.5088 59.2618 52.6093C60.3497 51.7097 61.095 50.4576 61.3707 49.0662L67.6979 17.1611C68.7117 17.2529 69.7285 17.0217 70.6053 16.5002C71.4821 15.9786 72.1747 15.1929 72.5857 14.2536C72.9966 13.3142 73.1053 12.2686 72.8963 11.2637C72.6874 10.2589 72.1713 9.34539 71.4208 8.6518C70.6703 7.95821 69.7231 7.51943 68.7124 7.39719C67.7017 7.27494 66.6785 7.4754 65.7867 7.97035C64.8949 8.4653 64.1793 9.22982 63.7408 10.1564C63.3022 11.0829 63.1627 12.1248 63.3418 13.1355L51.1158 18.9481C50.619 19.184 50.0577 19.2435 49.5231 19.117C48.9885 18.9904 48.5121 18.6852 48.1712 18.2509M36.5 39.2723C35.2092 39.2723 33.9712 38.7551 33.0585 37.8344C32.1457 36.9137 31.6329 35.6651 31.6329 34.3631C31.6329 33.061 32.1457 31.8124 33.0585 30.8917C33.9712 29.971 35.2092 29.4538 36.5 29.4538C37.7908 29.4538 39.0288 29.971 39.9415 30.8917C40.8543 31.8124 41.3671 33.061 41.3671 34.3631C41.3671 35.6651 40.8543 36.9137 39.9415 37.8344C39.0288 38.7551 37.7908 39.2723 36.5 39.2723Z" fill="#EEAF0E"/>
</svg>
