<svg width="73" height="73" viewBox="0 0 73 73" fill="none" xmlns="http://www.w3.org/2000/svg">
<g filter="url(#filter0_d_47_111)">
<rect x="4" width="65" height="65" rx="15" fill="white"/>
</g>
<path fill-rule="evenodd" clip-rule="evenodd" d="M56.7228 12.3373C56.9207 12.5523 57.0199 12.8405 56.9967 13.1322C56.4114 20.462 52.8253 27.0042 48.6713 32.454C47.5799 33.8859 46.4429 35.2502 45.3033 36.5399L45.3033 45.3908C45.3033 46.4669 44.8772 47.4988 44.1187 48.2597L39.9935 52.3979C38.8778 53.5172 36.9722 53.0008 36.5701 51.4701L34.9464 45.2902L33.0435 43.3814C32.6353 42.9719 32.6353 42.308 33.0435 41.8986C33.4517 41.4891 34.1135 41.4891 34.5216 41.8986L35.8738 43.255C36.1928 42.939 36.5236 42.6128 36.8646 42.2767C38.8206 40.3486 41.1098 38.092 43.3959 35.5357C43.4467 35.4615 43.5068 35.3942 43.5745 35.3354C44.7378 34.0265 45.8979 32.6402 47.0107 31.1803C50.8146 26.1898 53.9823 20.439 54.7901 14.1441C49.6585 14.5519 43.886 17.5607 38.5674 21.417C36.8283 22.6779 35.1549 24.0167 33.5886 25.362C33.5325 25.4233 33.4692 25.4778 33.4001 25.5243C30.2928 28.2086 27.618 30.9071 25.7036 33.0528L27.4522 34.8069C27.8604 35.2164 27.8604 35.8803 27.4522 36.2897C27.0441 36.6992 26.3823 36.6992 25.9741 36.2897L23.6856 33.994L17.5251 32.3652C15.9992 31.9618 15.4845 30.0503 16.6002 28.931L20.7254 24.7928C21.4839 24.032 22.5127 23.6045 23.5853 23.6045L32.4213 23.6045C33.9737 22.279 35.6264 20.962 37.3428 19.7175C43.1398 15.5143 49.8495 12 55.9548 12C56.2465 12 56.5249 12.1223 56.7228 12.3373ZM30.0518 25.7015H23.5853C23.0671 25.7015 22.57 25.908 22.2036 26.2756L18.1343 30.3577L23.9354 31.8915C25.5071 30.112 27.6061 27.9434 30.0518 25.7015ZM38.3013 43.8011C39.7731 42.3508 41.4641 40.6845 43.2129 38.8281V45.3908C43.2129 45.9107 43.0071 46.4093 42.6406 46.7769L38.5713 50.859L37.0435 45.0441C37.4403 44.6496 37.861 44.235 38.3013 43.8011Z" fill="#DE114C"/>
<path fill-rule="evenodd" clip-rule="evenodd" d="M39.8237 23.1702C41.4209 21.568 44.0105 21.568 45.6077 23.1702C47.205 24.7724 47.205 27.3702 45.6077 28.9724C44.0105 30.5747 41.4209 30.5747 39.8237 28.9724C38.2265 27.3702 38.2265 24.7724 39.8237 23.1702ZM44.1296 24.653C43.3487 23.8697 42.0827 23.8697 41.3018 24.653C40.521 25.4363 40.521 26.7063 41.3018 27.4896C42.0827 28.273 43.3487 28.273 44.1296 27.4896C44.9105 26.7063 44.9105 25.4363 44.1296 24.653Z" fill="#DE114C"/>
<path d="M33.4612 37.0956C33.8694 36.6861 33.8694 36.0223 33.4612 35.6128C33.053 35.2033 32.3913 35.2033 31.9831 35.6128L20.0294 47.6041C19.6212 48.0136 19.6212 48.6774 20.0294 49.0869C20.4375 49.4964 21.0993 49.4964 21.5075 49.0869L33.4612 37.0956Z" fill="#DE114C"/>
<path d="M24.5602 38.9974C24.9684 38.588 24.9684 37.9241 24.5602 37.5146C24.152 37.1052 23.4902 37.1052 23.0821 37.5146L20.5435 40.0612C20.1353 40.4707 20.1353 41.1345 20.5435 41.544C20.9517 41.9534 21.6135 41.9534 22.0216 41.544L24.5602 38.9974Z" fill="#DE114C"/>
<path d="M31.5653 46.0246C31.9735 45.6151 31.9735 44.9513 31.5653 44.5418C31.1572 44.1324 30.4954 44.1324 30.0872 44.5418L27.5486 47.0884C27.1405 47.4978 27.1405 48.1617 27.5486 48.5712C27.9568 48.9806 28.6186 48.9806 29.0268 48.5712L31.5653 46.0246Z" fill="#DE114C"/>
<defs>
<filter id="filter0_d_47_111" x="0" y="0" width="73" height="73" filterUnits="userSpaceOnUse" color-interpolation-filters="sRGB">
<feFlood flood-opacity="0" result="BackgroundImageFix"/>
<feColorMatrix in="SourceAlpha" type="matrix" values="0 0 0 0 0 0 0 0 0 0 0 0 0 0 0 0 0 0 127 0" result="hardAlpha"/>
<feOffset dy="4"/>
<feGaussianBlur stdDeviation="2"/>
<feComposite in2="hardAlpha" operator="out"/>
<feColorMatrix type="matrix" values="0 0 0 0 0 0 0 0 0 0 0 0 0 0 0 0 0 0 0.25 0"/>
<feBlend mode="normal" in2="BackgroundImageFix" result="effect1_dropShadow_47_111"/>
<feBlend mode="normal" in="SourceGraphic" in2="effect1_dropShadow_47_111" result="shape"/>
</filter>
</defs>
</svg>
