<svg width="69" height="27" viewBox="0 0 69 27" fill="none" xmlns="http://www.w3.org/2000/svg">
<rect width="69" height="27" rx="7.71429" fill="#EE0E5F"/>
<path d="M8.53247 13.5L15.839 5.78571H19.7533L12.4467 13.5L19.7533 21.2143H15.839L8.53247 13.5Z" fill="white"/>
<path d="M30.1412 10.6818L30.6525 14.7841H30.698L32.573 10.6818H34.3571L31.4707 16.5H29.3116L28.3571 10.6818H30.1412ZM39.6866 13.6932C39.5806 14.3258 39.3703 14.8561 39.056 15.2841C38.7416 15.7121 38.3599 16.035 37.9111 16.2528C37.4622 16.4706 36.9821 16.5795 36.4707 16.5795C35.9253 16.5795 35.4518 16.4612 35.0503 16.2244C34.6488 15.9877 34.3561 15.6411 34.1724 15.1847C33.9887 14.7282 33.9518 14.1705 34.0616 13.5114C34.1639 12.8788 34.3722 12.3466 34.6866 11.9148C35.001 11.483 35.3846 11.1562 35.8372 10.9347C36.2899 10.7131 36.7738 10.6023 37.2889 10.6023C37.8306 10.6023 38.3012 10.7216 38.7008 10.9602C39.1024 11.1989 39.394 11.5483 39.5758 12.0085C39.7596 12.4687 39.7965 13.0303 39.6866 13.6932ZM38.0957 13.5114C38.1488 13.178 38.1525 12.8977 38.1071 12.6705C38.0616 12.4413 37.966 12.2689 37.8202 12.1534C37.6743 12.036 37.4783 11.9773 37.2321 11.9773C36.9518 11.9773 36.7037 12.0455 36.4878 12.1818C36.2719 12.3182 36.0929 12.5142 35.9508 12.7699C35.8088 13.0256 35.7094 13.3333 35.6525 13.6932C35.5919 14.0303 35.5863 14.3106 35.6355 14.5341C35.6866 14.7576 35.787 14.9252 35.9366 15.0369C36.0881 15.1487 36.2851 15.2045 36.5275 15.2045C36.8041 15.2045 37.0484 15.1383 37.2605 15.0057C37.4745 14.8731 37.6516 14.6809 37.7917 14.429C37.9338 14.1771 38.0351 13.8712 38.0957 13.5114ZM39.9515 16.5L40.9175 10.6818H42.497L41.747 15.2273H44.0993L43.8834 16.5H39.9515ZM44.4175 11.9545L44.6334 10.6818H49.6902L49.4743 11.9545H47.7243L46.9743 16.5H45.4175L46.1675 11.9545H44.4175ZM50.0957 16.5H48.3912L51.2775 10.6818H53.4366L54.3912 16.5H52.6866L52.1185 12.2841H52.073L50.0957 16.5ZM50.1639 14.2045H53.3685L53.1639 15.3864H49.9594L50.1639 14.2045ZM54.9515 16.5L55.9175 10.6818H58.4288C58.8606 10.6818 59.2252 10.7604 59.5226 10.9176C59.8199 11.0748 60.0339 11.3011 60.1646 11.5966C60.2953 11.892 60.3265 12.2462 60.2584 12.6591C60.1902 13.0758 60.0396 13.4271 59.8067 13.7131C59.5756 13.9972 59.2811 14.2131 58.9231 14.3608C58.5671 14.5066 58.1675 14.5795 57.7243 14.5795H56.2243L56.4288 13.3523H57.6106C57.7962 13.3523 57.9591 13.3295 58.0993 13.2841C58.2394 13.2367 58.3531 13.1629 58.4402 13.0625C58.5273 12.9602 58.5841 12.8258 58.6106 12.6591C58.6372 12.4924 58.6239 12.357 58.5709 12.2528C58.5178 12.1468 58.4298 12.0691 58.3067 12.0199C58.1836 11.9687 58.0311 11.9432 57.8493 11.9432H57.2925L56.5311 16.5H54.9515ZM58.8038 13.8295L59.8152 16.5H58.0993L57.122 13.8295H58.8038Z" fill="white"/>
</svg>
