<svg width="79" height="26" viewBox="0 0 79 26" fill="none" xmlns="http://www.w3.org/2000/svg">
<path fill-rule="evenodd" clip-rule="evenodd" d="M20.3648 3.16454C20.4613 3.26943 20.5097 3.41001 20.4984 3.5523C20.2129 7.1278 18.4636 10.3191 16.4372 12.9776C15.9048 13.6761 15.3502 14.3416 14.7943 14.9707L14.7943 19.2882C14.7943 19.8131 14.5865 20.3165 14.2165 20.6877L12.2042 22.7063C11.6599 23.2523 10.7304 23.0004 10.5342 22.2537L9.74214 19.2391L8.8139 18.308C8.61479 18.1082 8.61479 17.7844 8.8139 17.5847C9.01301 17.3849 9.33583 17.3849 9.53495 17.5847L10.1945 18.2463C10.3501 18.0922 10.5115 17.9331 10.6779 17.7691C11.632 16.8286 12.7487 15.7278 13.8639 14.4809C13.8886 14.4446 13.918 14.4118 13.951 14.3831C14.5184 13.7446 15.0844 13.0684 15.6272 12.3562C17.4827 9.92186 19.028 7.11658 19.422 4.04591C16.9188 4.24482 14.103 5.71252 11.5085 7.59366C10.6602 8.20875 9.84388 8.86183 9.07979 9.51805C9.05243 9.54794 9.02157 9.57455 8.98786 9.59723C7.47212 10.9066 6.16731 12.223 5.23345 13.2696L6.08645 14.1253C6.28557 14.3251 6.28557 14.6489 6.08645 14.8486C5.88734 15.0484 5.56452 15.0484 5.36541 14.8486L4.24906 13.7288L1.24394 12.9343C0.499627 12.7375 0.248521 11.805 0.792803 11.259L2.80509 9.24041C3.17509 8.86925 3.67691 8.66073 4.20016 8.66073L8.51037 8.66073C9.26766 8.01414 10.0739 7.3717 10.9111 6.76462C13.7389 4.71431 17.012 3 19.9901 3C20.1324 3 20.2683 3.05965 20.3648 3.16454ZM7.35453 9.68365L4.20016 9.68365C3.94735 9.68365 3.7049 9.7844 3.52614 9.96372L1.54113 11.955L4.3709 12.7032C5.1376 11.8351 6.1615 10.7772 7.35453 9.68365ZM11.3787 18.5127C12.0966 17.8053 12.9215 16.9924 13.7746 16.0869L13.7746 19.2882C13.7746 19.5418 13.6742 19.785 13.4954 19.9643L11.5104 21.9556L10.7651 19.1191C10.9587 18.9266 11.1639 18.7244 11.3787 18.5127Z" fill="white"/>
<path fill-rule="evenodd" clip-rule="evenodd" d="M12.1213 8.44888C12.9004 7.66729 14.1637 7.66729 14.9428 8.44888C15.7219 9.23046 15.7219 10.4977 14.9428 11.2792C14.1637 12.0608 12.9004 12.0608 12.1213 11.2792C11.3422 10.4977 11.3422 9.23046 12.1213 8.44888ZM14.2218 9.17219C13.8408 8.79009 13.2233 8.79009 12.8424 9.17219C12.4615 9.5543 12.4615 10.1738 12.8424 10.5559C13.2233 10.938 13.8408 10.938 14.2218 10.5559C14.6027 10.1738 14.6027 9.5543 14.2218 9.17219Z" fill="white"/>
<path d="M9.01767 15.2418C9.21678 15.042 9.21678 14.7182 9.01767 14.5184C8.81856 14.3187 8.49574 14.3187 8.29662 14.5184L2.46554 20.3679C2.26643 20.5676 2.26643 20.8914 2.46554 21.0912C2.66465 21.2909 2.98748 21.2909 3.18659 21.0912L9.01767 15.2418Z" fill="white"/>
<path d="M4.67571 16.1695C4.87482 15.9697 4.87482 15.6459 4.67571 15.4462C4.4766 15.2464 4.15377 15.2464 3.95466 15.4462L2.71634 16.6884C2.51723 16.8881 2.51723 17.212 2.71634 17.4117C2.91545 17.6114 3.23828 17.6114 3.43739 17.4117L4.67571 16.1695Z" fill="white"/>
<path d="M8.09285 19.5974C8.29196 19.3976 8.29196 19.0738 8.09285 18.8741C7.89374 18.6743 7.57091 18.6743 7.3718 18.8741L6.13348 20.1163C5.93437 20.316 5.93437 20.6398 6.13348 20.8396C6.33259 21.0393 6.65542 21.0393 6.85453 20.8396L8.09285 19.5974Z" fill="white"/>
<path d="M30.5156 11L31.8438 3H35.3125C35.9219 3 36.4206 3.08203 36.8086 3.24609C37.1992 3.41016 37.4753 3.64193 37.6367 3.94141C37.8008 4.24089 37.849 4.59375 37.7812 5C37.7292 5.29167 37.6172 5.55859 37.4453 5.80078C37.276 6.04036 37.0612 6.24349 36.8008 6.41016C36.543 6.57422 36.2552 6.6875 35.9375 6.75L35.9219 6.82812C36.2656 6.83854 36.5651 6.92448 36.8203 7.08594C37.0755 7.24479 37.263 7.46615 37.3828 7.75C37.5026 8.03125 37.5313 8.35937 37.4688 8.73437C37.3958 9.17187 37.2174 9.5612 36.9336 9.90234C36.6497 10.2435 36.2813 10.5117 35.8281 10.707C35.375 10.9023 34.8594 11 34.2812 11H30.5156ZM32.9844 9.26563H34C34.3594 9.26563 34.6419 9.19661 34.8477 9.05859C35.056 8.92057 35.1797 8.71875 35.2188 8.45312C35.25 8.26562 35.2344 8.10677 35.1719 7.97656C35.1094 7.84635 35.0039 7.7474 34.8555 7.67969C34.707 7.61198 34.5208 7.57812 34.2969 7.57812H33.25L32.9844 9.26563ZM33.4844 6.23437H34.375C34.5625 6.23437 34.7344 6.20443 34.8906 6.14453C35.0469 6.08464 35.1758 5.9974 35.2773 5.88281C35.3789 5.76823 35.4427 5.63021 35.4688 5.46875C35.5078 5.21875 35.4479 5.02865 35.2891 4.89844C35.1328 4.76823 34.9219 4.70312 34.6562 4.70312H33.7344L33.4844 6.23437ZM43.9258 3H46.0977L45.2461 8.125C45.1471 8.73437 44.9154 9.26172 44.5508 9.70703C44.1888 10.1497 43.7279 10.4922 43.168 10.7344C42.6081 10.974 41.9857 11.0938 41.3008 11.0938C40.6107 11.0938 40.0273 10.974 39.5508 10.7344C39.0742 10.4922 38.7279 10.1497 38.5117 9.70703C38.2982 9.26172 38.2409 8.73437 38.3398 8.125L39.1914 3H41.3633L40.543 7.9375C40.5039 8.1849 40.5234 8.40495 40.6016 8.59766C40.6797 8.79036 40.806 8.94271 40.9805 9.05469C41.1549 9.16406 41.3659 9.21875 41.6133 9.21875C41.8633 9.21875 42.0938 9.16406 42.3047 9.05469C42.5182 8.94271 42.6953 8.79036 42.8359 8.59766C42.9766 8.40495 43.0664 8.1849 43.1055 7.9375L43.9258 3ZM51.0205 5.5C51.0439 5.24219 50.9814 5.04036 50.833 4.89453C50.6846 4.74609 50.4346 4.67187 50.083 4.67187C49.859 4.67187 49.6715 4.69792 49.5205 4.75C49.3721 4.80208 49.2562 4.8737 49.1729 4.96484C49.0921 5.05599 49.0413 5.16146 49.0205 5.28125C48.9971 5.375 48.9984 5.46094 49.0244 5.53906C49.0531 5.61458 49.1064 5.68359 49.1846 5.74609C49.2653 5.80859 49.3708 5.86458 49.501 5.91406C49.6338 5.96354 49.7913 6.00781 49.9736 6.04687L50.5986 6.1875C51.0257 6.28125 51.3838 6.40495 51.6729 6.55859C51.9645 6.70964 52.1937 6.88932 52.3604 7.09766C52.527 7.30599 52.6364 7.53906 52.6885 7.79687C52.7432 8.05469 52.7445 8.33594 52.6924 8.64062C52.6038 9.16667 52.3994 9.61198 52.0791 9.97656C51.7588 10.3411 51.3408 10.6185 50.8252 10.8086C50.3096 10.9987 49.7132 11.0938 49.0361 11.0938C48.3434 11.0938 47.7549 10.9909 47.2705 10.7852C46.7887 10.5768 46.4398 10.2591 46.2236 9.83203C46.0101 9.40234 45.958 8.85417 46.0674 8.1875H48.1299C48.0986 8.43229 48.1247 8.63802 48.208 8.80469C48.2913 8.97135 48.4255 9.09766 48.6104 9.18359C48.7952 9.26953 49.0257 9.3125 49.3018 9.3125C49.5361 9.3125 49.7367 9.28385 49.9033 9.22656C50.07 9.16927 50.2015 9.08984 50.2979 8.98828C50.3942 8.88672 50.4528 8.77083 50.4736 8.64062C50.4945 8.52083 50.4736 8.41406 50.4111 8.32031C50.3486 8.22656 50.2354 8.14193 50.0713 8.06641C49.9072 7.99089 49.682 7.92187 49.3955 7.85937L48.6299 7.6875C47.9502 7.53125 47.4372 7.27344 47.0908 6.91406C46.7445 6.55469 46.6221 6.0625 46.7236 5.4375C46.807 4.92708 47.0166 4.48177 47.3525 4.10156C47.6911 3.71875 48.1208 3.42187 48.6416 3.21094C49.165 2.9974 49.7445 2.89062 50.3799 2.89062C51.0257 2.89062 51.5661 2.9987 52.001 3.21484C52.4385 3.43099 52.7523 3.73437 52.9424 4.125C53.1351 4.51562 53.1872 4.97396 53.0986 5.5H51.0205ZM61.417 6H59.2451C59.2607 5.8151 59.2503 5.64844 59.2139 5.5C59.1774 5.35156 59.1149 5.22396 59.0264 5.11719C58.9378 5.00781 58.8219 4.92448 58.6787 4.86719C58.5355 4.8099 58.3649 4.78125 58.167 4.78125C57.7868 4.78125 57.4469 4.8763 57.1475 5.06641C56.848 5.25391 56.5993 5.52344 56.4014 5.875C56.2035 6.22396 56.0628 6.64062 55.9795 7.125C55.9066 7.59375 55.904 7.98307 55.9717 8.29297C56.042 8.60286 56.1787 8.83464 56.3818 8.98828C56.5876 9.14193 56.8545 9.21875 57.1826 9.21875C57.4014 9.21875 57.6019 9.19271 57.7842 9.14062C57.9691 9.08854 58.1331 9.01432 58.2764 8.91797C58.4222 8.81901 58.5459 8.70182 58.6475 8.56641C58.7516 8.42839 58.8311 8.27604 58.8857 8.10937H61.0732C60.9899 8.44792 60.8415 8.79427 60.6279 9.14844C60.4144 9.5 60.1383 9.82422 59.7998 10.1211C59.4613 10.4154 59.0628 10.6536 58.6045 10.8359C58.1462 11.0182 57.6305 11.1094 57.0576 11.1094C56.3076 11.1094 55.6605 10.9453 55.1162 10.6172C54.5745 10.2891 54.1813 9.8099 53.9365 9.17969C53.6943 8.54948 53.6462 7.78125 53.792 6.875C53.9378 6 54.2256 5.26693 54.6553 4.67578C55.085 4.08464 55.6071 3.63932 56.2217 3.33984C56.8363 3.04036 57.4899 2.89062 58.1826 2.89062C58.7061 2.89062 59.1748 2.95964 59.5889 3.09766C60.0055 3.23568 60.3558 3.4375 60.6396 3.70312C60.9261 3.96615 61.137 4.29036 61.2725 4.67578C61.4079 5.0612 61.4561 5.5026 61.417 6ZM63.4131 11H61.0693L65.0381 3H68.0068L69.3193 11H66.9756L66.1943 5.20313H66.1318L63.4131 11ZM63.5068 7.84375H67.9131L67.6318 9.46875H63.2256L63.5068 7.84375ZM70.0898 11L71.418 3H74.8711C75.4648 3 75.9661 3.10807 76.375 3.32422C76.7839 3.54036 77.0781 3.85156 77.2578 4.25781C77.4375 4.66406 77.4805 5.15104 77.3867 5.71875C77.293 6.29167 77.0859 6.77474 76.7656 7.16797C76.4479 7.55859 76.043 7.85547 75.5508 8.05859C75.0612 8.25911 74.5117 8.35937 73.9023 8.35937H71.8398L72.1211 6.67188H73.7461C74.0013 6.67188 74.2253 6.64062 74.418 6.57812C74.6107 6.51302 74.7669 6.41146 74.8867 6.27344C75.0065 6.13281 75.0846 5.94792 75.1211 5.71875C75.1576 5.48958 75.1393 5.30339 75.0664 5.16016C74.9935 5.01432 74.8724 4.90755 74.7031 4.83984C74.5339 4.76953 74.3242 4.73437 74.0742 4.73437H73.3086L72.2617 11H70.0898ZM75.3867 7.32812L76.7773 11H74.418L73.0742 7.32812H75.3867ZM35.7344 18.5C35.7578 18.2422 35.6953 18.0404 35.5469 17.8945C35.3984 17.7461 35.1484 17.6719 34.7969 17.6719C34.5729 17.6719 34.3854 17.6979 34.2344 17.75C34.0859 17.8021 33.9701 17.8737 33.8867 17.9648C33.806 18.056 33.7552 18.1615 33.7344 18.2812C33.7109 18.375 33.7122 18.4609 33.7383 18.5391C33.7669 18.6146 33.8203 18.6836 33.8984 18.7461C33.9792 18.8086 34.0846 18.8646 34.2148 18.9141C34.3477 18.9635 34.5052 19.0078 34.6875 19.0469L35.3125 19.1875C35.7396 19.2812 36.0977 19.4049 36.3867 19.5586C36.6784 19.7096 36.9076 19.8893 37.0742 20.0977C37.2409 20.306 37.3503 20.5391 37.4023 20.7969C37.457 21.0547 37.4583 21.3359 37.4063 21.6406C37.3177 22.1667 37.1133 22.612 36.793 22.9766C36.4727 23.3411 36.0547 23.6185 35.5391 23.8086C35.0234 23.9987 34.4271 24.0938 33.75 24.0938C33.0573 24.0938 32.4688 23.9909 31.9844 23.7852C31.5026 23.5768 31.1536 23.2591 30.9375 22.832C30.724 22.4023 30.6719 21.8542 30.7813 21.1875H32.8438C32.8125 21.4323 32.8385 21.638 32.9219 21.8047C33.0052 21.9714 33.1393 22.0977 33.3242 22.1836C33.5091 22.2695 33.7396 22.3125 34.0156 22.3125C34.25 22.3125 34.4505 22.2839 34.6172 22.2266C34.7839 22.1693 34.9154 22.0898 35.0117 21.9883C35.1081 21.8867 35.1667 21.7708 35.1875 21.6406C35.2083 21.5208 35.1875 21.4141 35.125 21.3203C35.0625 21.2266 34.9492 21.1419 34.7852 21.0664C34.6211 20.9909 34.3958 20.9219 34.1094 20.8594L33.3438 20.6875C32.6641 20.5312 32.151 20.2734 31.8047 19.9141C31.4583 19.5547 31.3359 19.0625 31.4375 18.4375C31.5208 17.9271 31.7305 17.4818 32.0664 17.1016C32.4049 16.7187 32.8346 16.4219 33.3555 16.2109C33.8789 15.9974 34.4583 15.8906 35.0938 15.8906C35.7396 15.8906 36.2799 15.9987 36.7148 16.2148C37.1523 16.431 37.4661 16.7344 37.6563 17.125C37.849 17.5156 37.901 17.974 37.8125 18.5H35.7344ZM41.3418 16L40.0137 24H37.8418L39.1699 16H41.3418ZM49.293 16L47.9648 24H46.1523L43.9648 19.7969H43.918L43.2148 24H41.043L42.3711 16H44.2148L46.3711 20.1875H46.4336L47.1211 16H49.293ZM51.0703 24H48.7266L52.6953 16H55.6641L56.9766 24H54.6328L53.8516 18.2031H53.7891L51.0703 24ZM51.1641 20.8438H55.5703L55.2891 22.4687H50.8828L51.1641 20.8438ZM57.7471 24L59.0752 16H61.2471L60.2158 22.25H63.4502L63.1533 24H57.7471Z" fill="white"/>
</svg>
