<svg width="49" height="36" viewBox="0 0 49 36" fill="none" xmlns="http://www.w3.org/2000/svg">
<path d="M32.0678 12.3293L26.8943 5.75548C27.2877 5.29367 27.5414 4.72772 27.6254 4.1248C27.7095 3.52188 27.6202 2.9073 27.3683 2.35401C27.1164 1.80072 26.7124 1.33194 26.2043 1.00331C25.6961 0.67468 25.1052 0.5 24.5016 0.5C23.898 0.5 23.307 0.67468 22.7989 1.00331C22.2907 1.33194 21.8867 1.80072 21.6348 2.35401C21.3829 2.9073 21.2937 3.52188 21.3777 4.1248C21.4617 4.72772 21.7155 5.29367 22.1088 5.75548L16.9353 12.3293C16.7142 12.6115 16.4049 12.8098 16.0577 12.8918C15.7105 12.9739 15.346 12.9349 15.0236 12.7811L7.10251 9.01376C7.21862 8.35868 7.12819 7.68336 6.84393 7.08283C6.55968 6.48229 6.09591 5.98677 5.51788 5.66597C4.93985 5.34517 4.27665 5.21524 3.62159 5.29447C2.96653 5.3737 2.35258 5.6581 1.86613 6.10765C1.37968 6.5572 1.04521 7.14927 0.909775 7.80057C0.774341 8.45187 0.844762 9.1296 1.11113 9.73842C1.3775 10.3472 1.82641 10.8565 2.3947 11.1945C2.96298 11.5326 3.62205 11.6824 4.27916 11.6229L8.38011 32.3054C8.55925 33.2056 9.04164 34.0155 9.74542 34.5978C10.4492 35.1801 11.331 35.4989 12.2413 35.5H36.7524C37.6642 35.5002 38.5478 35.1816 39.253 34.5986C39.9581 34.0155 40.4412 33.204 40.6199 32.3022L44.7208 11.6229C45.3779 11.6824 46.037 11.5326 46.6053 11.1945C47.1736 10.8565 47.6225 10.3472 47.8889 9.73842C48.1552 9.1296 48.2257 8.45187 48.0902 7.80057C47.9548 7.14927 47.6203 6.5572 47.1339 6.10765C46.6474 5.6581 46.0335 5.3737 45.3784 5.29447C44.7234 5.21524 44.0601 5.34517 43.4821 5.66597C42.9041 5.98677 42.4403 6.48229 42.1561 7.08283C41.8718 7.68336 41.7814 8.35868 41.8975 9.01376L33.9732 12.7811C33.6512 12.9341 33.2874 12.9726 32.9409 12.8906C32.5944 12.8086 32.2856 12.6108 32.0647 12.3293M24.5 25.9543C23.6634 25.9543 22.861 25.619 22.2694 25.0223C21.6778 24.4256 21.3454 23.6162 21.3454 22.7723C21.3454 21.9285 21.6778 21.1191 22.2694 20.5224C22.861 19.9257 23.6634 19.5904 24.5 19.5904C25.3366 19.5904 26.139 19.9257 26.7306 20.5224C27.3222 21.1191 27.6546 21.9285 27.6546 22.7723C27.6546 23.6162 27.3222 24.4256 26.7306 25.0223C26.139 25.619 25.3366 25.9543 24.5 25.9543Z" fill="#EEAF0E"/>
</svg>
