<svg width="65" height="21" viewBox="0 0 65 21" fill="none" xmlns="http://www.w3.org/2000/svg">
<path d="M8 16.5C9.5913 16.5 11.1174 15.8679 12.2426 14.7426C13.3679 13.6174 14 12.0913 14 10.5C14 8.9087 13.3679 7.38258 12.2426 6.25736C11.1174 5.13214 9.5913 4.5 8 4.5C6.4087 4.5 4.88258 5.13214 3.75736 6.25736C2.63214 7.38258 2 8.9087 2 10.5C2 12.0913 2.63214 13.6174 3.75736 14.7426C4.88258 15.8679 6.4087 16.5 8 16.5ZM8 3C8.98491 3 9.96018 3.19399 10.8701 3.5709C11.7801 3.94781 12.6069 4.50026 13.3033 5.1967C13.9997 5.89314 14.5522 6.71993 14.9291 7.62987C15.306 8.53982 15.5 9.51509 15.5 10.5C15.5 12.4891 14.7098 14.3968 13.3033 15.8033C11.8968 17.2098 9.98912 18 8 18C3.8525 18 0.5 14.625 0.5 10.5C0.5 8.51088 1.29018 6.60322 2.6967 5.1967C4.10322 3.79018 6.01088 3 8 3ZM8.375 6.75V10.6875L11.75 12.69L11.1875 13.6125L7.25 11.25V6.75H8.375Z" fill="#F8F8F8"/>
<path d="M26.9002 8.5V2.68182H28.1303V5.08239H30.6275V2.68182H31.8548V8.5H30.6275V6.09659H28.1303V8.5H26.9002ZM38.2156 5.59091C38.2156 6.22538 38.0953 6.76515 37.8548 7.21023C37.6161 7.6553 37.2904 7.99527 36.8775 8.23011C36.4665 8.46307 36.0044 8.57955 35.4911 8.57955C34.9741 8.57955 34.5101 8.46212 34.0991 8.22727C33.6881 7.99242 33.3633 7.65246 33.1246 7.20739C32.886 6.76231 32.7667 6.22348 32.7667 5.59091C32.7667 4.95644 32.886 4.41667 33.1246 3.97159C33.3633 3.52652 33.6881 3.1875 34.0991 2.95455C34.5101 2.7197 34.9741 2.60227 35.4911 2.60227C36.0044 2.60227 36.4665 2.7197 36.8775 2.95455C37.2904 3.1875 37.6161 3.52652 37.8548 3.97159C38.0953 4.41667 38.2156 4.95644 38.2156 5.59091ZM36.9684 5.59091C36.9684 5.17992 36.9068 4.83333 36.7837 4.55114C36.6625 4.26894 36.4911 4.05492 36.2695 3.90909C36.0479 3.76326 35.7885 3.69034 35.4911 3.69034C35.1938 3.69034 34.9343 3.76326 34.7127 3.90909C34.4911 4.05492 34.3188 4.26894 34.1957 4.55114C34.0745 4.83333 34.0138 5.17992 34.0138 5.59091C34.0138 6.00189 34.0745 6.34848 34.1957 6.63068C34.3188 6.91288 34.4911 7.12689 34.7127 7.27273C34.9343 7.41856 35.1938 7.49148 35.4911 7.49148C35.7885 7.49148 36.0479 7.41856 36.2695 7.27273C36.4911 7.12689 36.6625 6.91288 36.7837 6.63068C36.9068 6.34848 36.9684 6.00189 36.9684 5.59091ZM39.1268 8.5V2.68182H41.4222C41.8616 2.68182 42.2366 2.76042 42.5472 2.91761C42.8597 3.07292 43.0974 3.29356 43.2603 3.57955C43.4251 3.86364 43.5075 4.19792 43.5075 4.58239C43.5075 4.96875 43.4241 5.30114 43.2575 5.57955C43.0908 5.85606 42.8493 6.06818 42.533 6.21591C42.2186 6.36364 41.8379 6.4375 41.391 6.4375H39.854V5.44886H41.1921C41.427 5.44886 41.622 5.41667 41.7773 5.35227C41.9326 5.28788 42.0482 5.19129 42.1239 5.0625C42.2016 4.93371 42.2404 4.77367 42.2404 4.58239C42.2404 4.3892 42.2016 4.22633 42.1239 4.09375C42.0482 3.96117 41.9317 3.8608 41.7745 3.79261C41.6192 3.72254 41.4232 3.6875 41.1864 3.6875H40.3569V8.5H39.1268ZM42.2688 5.85227L43.7148 8.5H42.3569L40.9421 5.85227H42.2688ZM45.3796 8.5H44.0614L46.07 2.68182H47.6552L49.6609 8.5H48.3427L46.8853 4.01136H46.8398L45.3796 8.5ZM45.2972 6.21307H48.4109V7.1733H45.2972V6.21307ZM46.4279 2.11932L47.0302 0.826705H48.1495L47.283 2.11932H46.4279ZM50.3612 8.5V2.68182H52.6566C53.096 2.68182 53.471 2.76042 53.7816 2.91761C54.0941 3.07292 54.3318 3.29356 54.4947 3.57955C54.6594 3.86364 54.7418 4.19792 54.7418 4.58239C54.7418 4.96875 54.6585 5.30114 54.4918 5.57955C54.3252 5.85606 54.0837 6.06818 53.7674 6.21591C53.453 6.36364 53.0723 6.4375 52.6254 6.4375H51.0884V5.44886H52.4265C52.6613 5.44886 52.8564 5.41667 53.0117 5.35227C53.167 5.28788 53.2826 5.19129 53.3583 5.0625C53.436 4.93371 53.4748 4.77367 53.4748 4.58239C53.4748 4.3892 53.436 4.22633 53.3583 4.09375C53.2826 3.96117 53.1661 3.8608 53.0089 3.79261C52.8536 3.72254 52.6576 3.6875 52.4208 3.6875H51.5913V8.5H50.3612ZM53.5032 5.85227L54.9492 8.5H53.5913L52.1765 5.85227H53.5032ZM56.8413 2.68182V8.5H55.6112V2.68182H56.8413ZM63.1999 5.59091C63.1999 6.22538 63.0797 6.76515 62.8391 7.21023C62.6005 7.6553 62.2747 7.99527 61.8619 8.23011C61.4509 8.46307 60.9888 8.57955 60.4755 8.57955C59.9585 8.57955 59.4944 8.46212 59.0835 8.22727C58.6725 7.99242 58.3477 7.65246 58.109 7.20739C57.8704 6.76231 57.7511 6.22348 57.7511 5.59091C57.7511 4.95644 57.8704 4.41667 58.109 3.97159C58.3477 3.52652 58.6725 3.1875 59.0835 2.95455C59.4944 2.7197 59.9585 2.60227 60.4755 2.60227C60.9888 2.60227 61.4509 2.7197 61.8619 2.95455C62.2747 3.1875 62.6005 3.52652 62.8391 3.97159C63.0797 4.41667 63.1999 4.95644 63.1999 5.59091ZM61.9528 5.59091C61.9528 5.17992 61.8912 4.83333 61.7681 4.55114C61.6469 4.26894 61.4755 4.05492 61.2539 3.90909C61.0323 3.76326 60.7728 3.69034 60.4755 3.69034C60.1781 3.69034 59.9187 3.76326 59.6971 3.90909C59.4755 4.05492 59.3031 4.26894 59.18 4.55114C59.0588 4.83333 58.9982 5.17992 58.9982 5.59091C58.9982 6.00189 59.0588 6.34848 59.18 6.63068C59.3031 6.91288 59.4755 7.12689 59.6971 7.27273C59.9187 7.41856 60.1781 7.49148 60.4755 7.49148C60.7728 7.49148 61.0323 7.41856 61.2539 7.27273C61.4755 7.12689 61.6469 6.91288 61.7681 6.63068C61.8912 6.34848 61.9528 6.00189 61.9528 5.59091ZM26.0877 18.5V12.6818H30.0082V13.696H27.3178V15.0824H29.8065V16.0966H27.3178V17.4858H30.0195V18.5H26.0877ZM35.8526 12.6818V18.5H34.7901L32.2589 14.8381H32.2163V18.5H30.9862V12.6818H32.0657L34.5771 16.3409H34.6282V12.6818H35.8526ZM36.6474 13.696V12.6818H41.4258V13.696H39.6445V18.5H38.4286V13.696H36.6474ZM42.2127 18.5V12.6818H44.5082C44.9476 12.6818 45.3226 12.7604 45.6332 12.9176C45.9457 13.0729 46.1834 13.2936 46.3462 13.5795C46.511 13.8636 46.5934 14.1979 46.5934 14.5824C46.5934 14.9687 46.5101 15.3011 46.3434 15.5795C46.1767 15.8561 45.9353 16.0682 45.619 16.2159C45.3046 16.3636 44.9239 16.4375 44.4769 16.4375H42.94V15.4489H44.2781C44.5129 15.4489 44.708 15.4167 44.8633 15.3523C45.0186 15.2879 45.1341 15.1913 45.2099 15.0625C45.2875 14.9337 45.3263 14.7737 45.3263 14.5824C45.3263 14.3892 45.2875 14.2263 45.2099 14.0938C45.1341 13.9612 45.0176 13.8608 44.8604 13.7926C44.7051 13.7225 44.5091 13.6875 44.2724 13.6875H43.4428V18.5H42.2127ZM45.3548 15.8523L46.8008 18.5H45.4428L44.0281 15.8523H45.3548ZM48.4656 18.5H47.1474L49.1559 12.6818H50.7411L52.7468 18.5H51.4286L49.9712 14.0114H49.9258L48.4656 18.5ZM48.3832 16.2131H51.4968V17.1733H48.3832V16.2131ZM55.5096 18.5H53.4471V12.6818H55.5266C56.1119 12.6818 56.6156 12.7983 57.038 13.0312C57.4603 13.2623 57.7852 13.5947 58.0124 14.0284C58.2416 14.4621 58.3562 14.9811 58.3562 15.5852C58.3562 16.1913 58.2416 16.7121 58.0124 17.1477C57.7852 17.5833 57.4585 17.9176 57.0323 18.1506C56.6081 18.3835 56.1005 18.5 55.5096 18.5ZM54.6772 17.446H55.4585C55.8221 17.446 56.128 17.3816 56.3761 17.2528C56.6261 17.1222 56.8136 16.9205 56.9386 16.6477C57.0655 16.3731 57.1289 16.0189 57.1289 15.5852C57.1289 15.1553 57.0655 14.804 56.9386 14.5312C56.8136 14.2585 56.627 14.0578 56.3789 13.929C56.1308 13.8002 55.8249 13.7358 55.4613 13.7358H54.6772V17.446ZM59.9421 18.5H58.6239L60.6325 12.6818H62.2177L64.2234 18.5H62.9052L61.4478 14.0114H61.4023L59.9421 18.5ZM59.8597 16.2131H62.9734V17.1733H59.8597V16.2131Z" fill="white"/>
</svg>
