<svg width="32" height="32" viewBox="0 0 32 32" fill="none" xmlns="http://www.w3.org/2000/svg">
<path d="M1 16L4.33333 12.6667M4.33333 12.6667L16 1L27.6667 12.6667M4.33333 12.6667V29.3333C4.33333 29.7754 4.50893 30.1993 4.82149 30.5118C5.13405 30.8244 5.55797 31 6 31H11M27.6667 12.6667L31 16M27.6667 12.6667V29.3333C27.6667 29.7754 27.4911 30.1993 27.1785 30.5118C26.866 30.8244 26.442 31 26 31H21M11 31C11.442 31 11.866 30.8244 12.1785 30.5118C12.4911 30.1993 12.6667 29.7754 12.6667 29.3333V22.6667C12.6667 22.2246 12.8423 21.8007 13.1548 21.4882C13.4674 21.1756 13.8913 21 14.3333 21H17.6667C18.1087 21 18.5326 21.1756 18.8452 21.4882C19.1577 21.8007 19.3333 22.2246 19.3333 22.6667V29.3333C19.3333 29.7754 19.5089 30.1993 19.8215 30.5118C20.134 30.8244 20.558 31 21 31M11 31H21" stroke="white" stroke-width="2" stroke-linecap="round" stroke-linejoin="round"/>
</svg>
