<svg width="32" height="32" viewBox="0 0 32 32" fill="none" xmlns="http://www.w3.org/2000/svg">
<path d="M4.535 25.6733C8.03236 23.6965 11.9826 22.6606 16 22.6667C20.1667 22.6667 24.0783 23.7583 27.465 25.6733M21 12.6667C21 13.9927 20.4732 15.2645 19.5355 16.2022C18.5979 17.1399 17.3261 17.6667 16 17.6667C14.6739 17.6667 13.4021 17.1399 12.4645 16.2022C11.5268 15.2645 11 13.9927 11 12.6667C11 11.3406 11.5268 10.0688 12.4645 9.13113C13.4021 8.19345 14.6739 7.66667 16 7.66667C17.3261 7.66667 18.5979 8.19345 19.5355 9.13113C20.4732 10.0688 21 11.3406 21 12.6667ZM31 16C31 17.9698 30.612 19.9204 29.8582 21.7403C29.1044 23.5601 27.9995 25.2137 26.6066 26.6066C25.2137 27.9995 23.5601 29.1044 21.7403 29.8582C19.9204 30.612 17.9698 31 16 31C14.0302 31 12.0796 30.612 10.2597 29.8582C8.43986 29.1044 6.78628 27.9995 5.3934 26.6066C4.00052 25.2137 2.89563 23.5601 2.14181 21.7403C1.38799 19.9204 1 17.9698 1 16C1 12.0218 2.58035 8.20644 5.3934 5.3934C8.20644 2.58035 12.0218 1 16 1C19.9782 1 23.7936 2.58035 26.6066 5.3934C29.4196 8.20644 31 12.0218 31 16Z" stroke="white" stroke-width="2" stroke-linecap="round" stroke-linejoin="round"/>
</svg>
