<svg width="191" height="75" viewBox="0 0 191 75" fill="none" xmlns="http://www.w3.org/2000/svg">
<path d="M0.0643733 64L5.53611 31.0409H19.827C22.3375 31.0409 24.3921 31.3788 25.9907 32.0547C27.6001 32.7307 28.7373 33.6855 29.4025 34.9193C30.0784 36.1532 30.2769 37.6069 29.998 39.2806C29.7834 40.4823 29.3221 41.582 28.6139 42.5798C27.9166 43.5668 27.0314 44.4037 25.9585 45.0903C24.8964 45.7663 23.7108 46.233 22.4019 46.4905L22.3375 46.8123C23.7538 46.8552 24.9876 47.2093 26.039 47.8745C27.0904 48.5289 27.8629 49.4409 28.3565 50.6103C28.85 51.7691 28.968 53.1209 28.7105 54.6659C28.4101 56.4683 27.6752 58.0723 26.5057 59.4778C25.3363 60.8833 23.8181 61.9883 21.9513 62.793C20.0845 63.5977 17.9602 64 15.5783 64H0.0643733ZM10.2354 56.8546H14.4196C15.9002 56.8546 17.0643 56.5702 17.9119 56.0016C18.7702 55.433 19.2798 54.6015 19.4407 53.5071C19.5695 52.7347 19.5051 52.0802 19.2476 51.5438C18.9901 51.0073 18.5556 50.5996 17.9441 50.3207C17.3325 50.0417 16.5654 49.9022 15.6427 49.9022H11.3297L10.2354 56.8546ZM12.2953 44.3661H15.9646C16.7371 44.3661 17.4452 44.2427 18.0889 43.996C18.7326 43.7492 19.2637 43.3898 19.6821 42.9177C20.1006 42.4457 20.3634 41.877 20.4707 41.2118C20.6317 40.1819 20.3849 39.3987 19.7304 38.8622C19.0867 38.3258 18.2177 38.0575 17.1233 38.0575H13.3253L12.2953 44.3661ZM42.3094 64.4506C39.6272 64.4506 37.417 63.9195 35.6789 62.8574C33.9516 61.7845 32.7392 60.2932 32.0418 58.3834C31.3444 56.463 31.205 54.2367 31.6234 51.7047C32.0418 49.1727 32.9162 46.9518 34.2466 45.0421C35.577 43.1216 37.2883 41.6303 39.3804 40.5681C41.4725 39.4952 43.8651 38.9588 46.558 38.9588C49.2295 38.9588 51.4289 39.4952 53.1563 40.5681C54.8944 41.6303 56.1121 43.1216 56.8095 45.0421C57.5176 46.9518 57.6624 49.1727 57.244 51.7047C56.8256 54.2367 55.9458 56.463 54.6047 58.3834C53.2636 60.2932 51.5469 61.7845 49.4548 62.8574C47.3734 63.9195 44.9916 64.4506 42.3094 64.4506ZM43.4037 57.8845C44.1762 57.8845 44.8789 57.6324 45.5119 57.1281C46.1557 56.6239 46.7029 55.9051 47.1535 54.9716C47.6148 54.0382 47.9528 52.9278 48.1673 51.6403C48.3819 50.3421 48.4141 49.2317 48.2639 48.309C48.1137 47.3756 47.8026 46.6568 47.3305 46.1525C46.8584 45.6482 46.2361 45.3961 45.4637 45.3961C44.6912 45.3961 43.9831 45.6482 43.3393 46.1525C42.6956 46.6568 42.1484 47.3756 41.6978 48.309C41.2472 49.2317 40.9146 50.3421 40.7 51.6403C40.4855 52.9278 40.4479 54.0382 40.5874 54.9716C40.7376 55.9051 41.0487 56.6239 41.5208 57.1281C42.0036 57.6324 42.6312 57.8845 43.4037 57.8845ZM70.6336 64.4506C67.9514 64.4506 65.7413 63.9195 64.0032 62.8574C62.2758 61.7845 61.0635 60.2932 60.3661 58.3834C59.6687 56.463 59.5292 54.2367 59.9477 51.7047C60.3661 49.1727 61.2405 46.9518 62.5709 45.0421C63.9013 43.1216 65.6125 41.6303 67.7047 40.5681C69.7968 39.4952 72.1893 38.9588 74.8823 38.9588C77.5538 38.9588 79.7532 39.4952 81.4806 40.5681C83.2186 41.6303 84.4364 43.1216 85.1337 45.0421C85.8418 46.9518 85.9867 49.1727 85.5683 51.7047C85.1498 54.2367 84.2701 56.463 82.9289 58.3834C81.5878 60.2932 79.8712 61.7845 77.7791 62.8574C75.6977 63.9195 73.3159 64.4506 70.6336 64.4506ZM71.728 57.8845C72.5005 57.8845 73.2032 57.6324 73.8362 57.1281C74.48 56.6239 75.0271 55.9051 75.4777 54.9716C75.9391 54.0382 76.277 52.9278 76.4916 51.6403C76.7062 50.3421 76.7384 49.2317 76.5882 48.309C76.438 47.3756 76.1268 46.6568 75.6548 46.1525C75.1827 45.6482 74.5604 45.3961 73.7879 45.3961C73.0155 45.3961 72.3073 45.6482 71.6636 46.1525C71.0199 46.6568 70.4727 47.3756 70.0221 48.309C69.5715 49.2317 69.2389 50.3421 69.0243 51.6403C68.8097 52.9278 68.7722 54.0382 68.9117 54.9716C69.0619 55.9051 69.373 56.6239 69.8451 57.1281C70.3279 57.6324 70.9555 57.8845 71.728 57.8845ZM112.412 47.3273H104.43C104.473 46.8123 104.381 46.3724 104.156 46.0077C103.931 45.6429 103.614 45.3639 103.207 45.1708C102.81 44.9777 102.359 44.8811 101.855 44.8811C100.975 44.8811 100.176 45.0796 99.4568 45.4766C98.738 45.8628 98.3356 46.3724 98.2498 47.0054C98.1962 47.2522 98.2766 47.4829 98.4912 47.6975C98.7058 47.912 99.269 48.1105 100.181 48.2929L105.073 49.1941C107.52 49.6447 109.301 50.4655 110.416 51.6564C111.543 52.8366 111.951 54.3976 111.639 56.3396C111.35 58.024 110.609 59.4724 109.419 60.6848C108.228 61.8971 106.715 62.8306 104.88 63.485C103.056 64.1287 101.039 64.4506 98.8292 64.4506C94.9346 64.4506 92.0163 63.6728 90.0744 62.1171C88.1432 60.5614 87.2634 58.5283 87.4351 56.0177H96.0611C96.0826 56.8224 96.3508 57.4286 96.8658 57.8363C97.3915 58.2332 98.0889 58.4424 98.9579 58.4639C99.9021 58.4961 100.728 58.3083 101.436 57.9006C102.144 57.4822 102.541 56.9618 102.627 56.3396C102.659 55.9855 102.504 55.7173 102.16 55.5349C101.828 55.3525 101.19 55.1701 100.245 54.9877L95.9967 54.2153C93.5506 53.7754 91.7696 52.8956 90.6538 51.5759C89.5379 50.2456 89.1517 48.5504 89.495 46.4905C89.774 44.8489 90.4392 43.4703 91.4906 42.3545C92.5528 41.2387 93.9475 40.3964 95.6749 39.8278C97.4022 39.2485 99.3978 38.9588 101.662 38.9588C105.363 38.9588 108.163 39.7044 110.062 41.1957C111.972 42.6763 112.755 44.7202 112.412 47.3273ZM132.617 39.2806L131.523 45.718H115.236L116.331 39.2806H132.617ZM120.451 33.3583H129.334L125.568 56.0499C125.515 56.3932 125.525 56.6829 125.6 56.9189C125.676 57.1442 125.826 57.3159 126.051 57.4339C126.287 57.5412 126.598 57.5949 126.984 57.5949C127.242 57.5949 127.558 57.5627 127.934 57.4983C128.309 57.4232 128.594 57.3695 128.787 57.3374L129.044 63.5816C128.594 63.7103 127.988 63.8552 127.226 64.0161C126.475 64.1878 125.6 64.3004 124.603 64.3541C122.521 64.4506 120.826 64.2307 119.517 63.6942C118.219 63.1578 117.318 62.3209 116.813 61.1837C116.32 60.0357 116.234 58.6034 116.556 56.8867L120.451 33.3583ZM155.441 31.0409L149.97 64H141.022L146.494 31.0409H155.441ZM162.772 64H153.116L169.467 31.0409H181.698L187.105 64H177.449L174.23 40.1175H173.973L162.772 64ZM163.158 50.9966H181.312L180.153 57.6914H162L163.158 50.9966Z" fill="white"/>
<path fill-rule="evenodd" clip-rule="evenodd" d="M173.473 0.500896C173.767 0.820197 173.914 1.24814 173.879 1.6813C173.01 12.5659 167.685 22.2811 161.516 30.3739C159.896 32.5002 158.207 34.5262 156.515 36.4414L156.515 49.5848C156.515 51.1827 155.882 52.7152 154.756 53.8451L148.63 59.9902C146.973 61.6523 144.143 60.8855 143.546 58.6125L141.135 49.4355L138.309 46.6008C137.703 45.9928 137.703 45.0069 138.309 44.3989C138.915 43.7909 139.898 43.7909 140.504 44.3989L142.512 46.4132C142.986 45.9439 143.477 45.4596 143.984 44.9604C146.888 42.0972 150.288 38.7463 153.682 34.9502C153.758 34.84 153.847 34.7399 153.948 34.6527C155.675 32.709 157.398 30.6504 159.05 28.4824C164.699 21.0716 169.403 12.5318 170.603 3.18399C162.982 3.78949 154.41 8.25751 146.512 13.9841C143.93 15.8566 141.445 17.8447 139.119 19.8424C139.035 19.9334 138.942 20.0144 138.839 20.0834C134.225 24.0696 130.253 28.0768 127.41 31.263L130.006 33.8679C130.613 34.476 130.613 35.4618 130.006 36.0699C129.4 36.6779 128.417 36.6779 127.811 36.0699L124.413 32.6608L115.265 30.242C112.999 29.643 112.234 26.8044 113.891 25.1423L120.017 18.9972C121.144 17.8673 122.671 17.2325 124.264 17.2325L137.385 17.2325C139.691 15.2641 142.145 13.3084 144.694 11.4603C153.302 5.21872 163.266 1.82602e-07 172.332 0C172.765 2.73903e-07 173.179 0.181598 173.473 0.500896ZM133.867 20.3465H124.264C123.494 20.3465 122.756 20.6532 122.212 21.1991L116.169 27.2609L124.784 29.5385C127.118 26.896 130.235 23.6756 133.867 20.3465ZM146.117 47.2241C148.303 45.0705 150.814 42.596 153.411 39.8394V49.5848C153.411 50.3568 153.105 51.0973 152.561 51.6432L146.518 57.705L144.249 49.07C144.838 48.4841 145.463 47.8685 146.117 47.2241Z" fill="#CC0F80"/>
<path fill-rule="evenodd" clip-rule="evenodd" d="M148.378 16.5876C150.75 14.2083 154.595 14.2083 156.967 16.5876C159.339 18.9669 159.339 22.8245 156.967 25.2038C154.595 27.5831 150.75 27.5831 148.378 25.2038C146.006 22.8245 146.006 18.9669 148.378 16.5876ZM154.772 18.7895C153.612 17.6263 151.732 17.6263 150.573 18.7895C149.413 19.9527 149.413 21.8387 150.573 23.0019C151.732 24.1651 153.612 24.1651 154.772 23.0019C155.932 21.8387 155.932 19.9527 154.772 18.7895Z" fill="#CC0F80"/>
<path d="M138.93 37.2666C139.536 36.6585 139.536 35.6727 138.93 35.0646C138.324 34.4566 137.341 34.4566 136.735 35.0646L118.984 52.8715C118.377 53.4796 118.377 54.4654 118.984 55.0735C119.59 55.6815 120.572 55.6815 121.179 55.0735L138.93 37.2666Z" fill="#CC0F80"/>
<path d="M125.712 40.0908C126.318 39.4827 126.318 38.4969 125.712 37.8888C125.106 37.2808 124.123 37.2808 123.517 37.8888L119.747 41.6704C119.141 42.2785 119.141 43.2643 119.747 43.8723C120.353 44.4804 121.336 44.4804 121.942 43.8723L125.712 40.0908Z" fill="#CC0F80"/>
<path d="M136.114 50.526C136.72 49.918 136.72 48.9321 136.114 48.3241C135.508 47.716 134.525 47.716 133.919 48.3241L130.15 52.1057C129.543 52.7137 129.543 53.6995 130.15 54.3076C130.756 54.9156 131.738 54.9156 132.345 54.3076L136.114 50.526Z" fill="#CC0F80"/>
<path d="M155.484 31.0408L150.012 64H141.064L146.536 31.0408H155.484Z" fill="white"/>
</svg>
