<svg width="20" height="19" viewBox="0 0 20 19" fill="none" xmlns="http://www.w3.org/2000/svg">
<path d="M11 13.5L15 9.5M15 9.5L11 5.5M15 9.5H1M6 13.5V14.5C6 15.2956 6.31607 16.0587 6.87868 16.6213C7.44129 17.1839 8.20435 17.5 9 17.5H16C16.7956 17.5 17.5587 17.1839 18.1213 16.6213C18.6839 16.0587 19 15.2956 19 14.5V4.5C19 3.70435 18.6839 2.94129 18.1213 2.37868C17.5587 1.81607 16.7956 1.5 16 1.5H9C8.20435 1.5 7.44129 1.81607 6.87868 2.37868C6.31607 2.94129 6 3.70435 6 4.5V5.5" stroke="white" stroke-width="2" stroke-linecap="round" stroke-linejoin="round"/>
</svg>
