<svg width="133" height="35" viewBox="0 0 133 35" fill="none" xmlns="http://www.w3.org/2000/svg">
<path d="M0.277778 0L0 6.38889H8.61111L7.77778 34.4444H14.4444L15.5556 6.38889H23.0556L23.3333 0H0.277778Z" fill="white"/>
<path d="M27.5 0H44.4444L44.1667 6.66667H33.6111L33.3333 15L43.6111 10.8333L43.3333 17.7778L33.3333 22.2222L33.0556 28.6111L43.0556 24.1667V31.3889L35.5556 34.4444H26.1111L27.5 0Z" fill="white"/>
<path d="M55.2778 0H48.3333L47.2222 34.7222H56.3889L68.3333 29.1667L69.1667 0H62.7778L61.9445 25.2778L54.4445 28.6111L55.2778 0Z" fill="white"/>
<path d="M94.1667 6.66667L94.4445 0H73.3333L72.7778 20.8333H86.1111V28.0556H72.2222V34.7222H92.7778L93.6111 14.1667H80V6.66667H94.1667Z" fill="white"/>
<path d="M105 0H98.3333L97.2222 34.7222H103.889L105 0Z" fill="white"/>
<path d="M108.333 34.7222H115.278L116.111 6.94444L125 10.8333L124.167 35H131.111L132.5 0H125.556V4.16667L116.667 0H109.722L108.333 34.7222Z" fill="white"/>
</svg>
