<svg width="113" height="19" viewBox="0 0 113 19" fill="none" xmlns="http://www.w3.org/2000/svg">
<path d="M9.0298 0.9702L10.9449 6.86415H17.1421L12.1284 10.5068L14.0435 16.4008L9.0298 12.7581L4.01611 16.4008L5.93117 10.5068L0.917479 6.86415H7.11474L9.0298 0.9702Z" fill="#EEAF0E"/>
<path d="M32.7649 0.9702L34.68 6.86415H40.8772L35.8635 10.5068L37.7786 16.4008L32.7649 12.7581L27.7512 16.4008L29.6663 10.5068L24.6526 6.86415H30.8498L32.7649 0.9702Z" fill="#EEAF0E"/>
<path d="M56.5 0.9702L58.4151 6.86415H64.6123L59.5986 10.5068L61.5137 16.4008L56.5 12.7581L51.4863 16.4008L53.4014 10.5068L48.3877 6.86415H54.585L56.5 0.9702Z" fill="#EEAF0E"/>
<path d="M80.2351 0.9702L82.1502 6.86415H88.3474L83.3338 10.5068L85.2488 16.4008L80.2351 12.7581L75.2214 16.4008L77.1365 10.5068L72.1228 6.86415H78.3201L80.2351 0.9702Z" fill="#EEAF0E"/>
<path d="M103.97 0.9702L105.885 6.86415H112.083L107.069 10.5068L108.984 16.4008L103.97 12.7581L98.9565 16.4008L100.872 10.5068L95.8579 6.86415H102.055L103.97 0.9702Z" fill="#EEAF0E"/>
</svg>
