<svg width="496" height="368" viewBox="0 0 496 368" fill="none" xmlns="http://www.w3.org/2000/svg">
<path d="M24.167 183.272H3.84969V130.468H23.9607C29.3924 130.468 34.085 131.525 38.0384 133.639C42.009 135.736 45.0687 138.761 47.2173 142.715C49.3831 146.651 50.466 151.369 50.466 156.87C50.466 162.37 49.3917 167.097 47.243 171.051C45.0944 174.987 42.052 178.012 38.1157 180.126C34.1795 182.223 29.5299 183.272 24.167 183.272ZM18.1852 171.102H23.6513C26.264 171.102 28.49 170.681 30.3292 169.839C32.1856 168.997 33.5951 167.544 34.5576 165.481C35.5374 163.419 36.0273 160.548 36.0273 156.87C36.0273 153.191 35.5288 150.321 34.5319 148.258C33.5521 146.196 32.1082 144.743 30.2003 143.901C28.3095 143.059 25.989 142.637 23.2388 142.637H18.1852V171.102ZM71.4343 130.468V183.272H57.0987V130.468H71.4343ZM91.9449 183.272H76.4749L93.9044 130.468H113.5L130.929 183.272H115.459L103.908 145.009H103.496L91.9449 183.272ZM89.0572 162.439H118.141V173.165H89.0572V162.439ZM162.424 146.969C162.286 145.25 161.642 143.909 160.49 142.947C159.355 141.984 157.628 141.503 155.307 141.503C153.829 141.503 152.617 141.683 151.672 142.044C150.744 142.388 150.056 142.861 149.609 143.462C149.162 144.064 148.93 144.752 148.913 145.525C148.879 146.161 148.991 146.737 149.248 147.253C149.523 147.751 149.953 148.207 150.538 148.619C151.122 149.015 151.87 149.375 152.781 149.702C153.692 150.029 154.775 150.321 156.029 150.579L160.361 151.507C163.283 152.126 165.784 152.942 167.864 153.956C169.944 154.97 171.646 156.165 172.969 157.54C174.293 158.898 175.264 160.428 175.883 162.13C176.519 163.831 176.845 165.688 176.862 167.699C176.845 171.171 175.977 174.11 174.258 176.517C172.539 178.923 170.081 180.754 166.884 182.009C163.704 183.263 159.88 183.891 155.411 183.891C150.821 183.891 146.816 183.212 143.396 181.854C139.992 180.496 137.345 178.408 135.454 175.589C133.581 172.752 132.635 169.126 132.618 164.708H146.232C146.318 166.324 146.722 167.682 147.444 168.782C148.165 169.882 149.18 170.715 150.486 171.283C151.81 171.85 153.382 172.134 155.204 172.134C156.734 172.134 158.015 171.944 159.046 171.566C160.077 171.188 160.859 170.664 161.392 169.994C161.925 169.323 162.2 168.558 162.217 167.699C162.2 166.891 161.934 166.186 161.418 165.585C160.92 164.966 160.095 164.416 158.943 163.934C157.791 163.436 156.236 162.972 154.276 162.542L149.016 161.408C144.341 160.394 140.654 158.7 137.955 156.328C135.274 153.939 133.942 150.682 133.959 146.556C133.942 143.205 134.835 140.274 136.64 137.764C138.462 135.238 140.981 133.269 144.195 131.86C147.426 130.451 151.131 129.746 155.307 129.746C159.57 129.746 163.257 130.459 166.369 131.886C169.48 133.312 171.878 135.324 173.562 137.919C175.264 140.497 176.123 143.514 176.14 146.969H162.424ZM217.097 183.272H196.78V130.468H216.891C222.323 130.468 227.015 131.525 230.969 133.639C234.939 135.736 237.999 138.761 240.148 142.715C242.313 146.651 243.396 151.369 243.396 156.87C243.396 162.37 242.322 167.097 240.173 171.051C238.025 174.987 234.982 178.012 231.046 180.126C227.11 182.223 222.46 183.272 217.097 183.272ZM211.115 171.102H216.582C219.194 171.102 221.42 170.681 223.259 169.839C225.116 168.997 226.525 167.544 227.488 165.481C228.468 163.419 228.958 160.548 228.958 156.87C228.958 153.191 228.459 150.321 227.462 148.258C226.482 146.196 225.038 144.743 223.131 143.901C221.24 143.059 218.919 142.637 216.169 142.637H211.115V171.102ZM250.029 183.272V130.468H288.085V142.019H264.365V151.094H286.126V162.645H264.365V171.721H287.982V183.272H250.029ZM38.1415 235.897C37.9181 234.986 37.5657 234.187 37.0844 233.499C36.6031 232.795 36.0015 232.202 35.2796 231.72C34.5748 231.222 33.7498 230.852 32.8044 230.612C31.8762 230.354 30.8534 230.225 29.7362 230.225C27.3297 230.225 25.2756 230.801 23.5739 231.952C21.8894 233.104 20.6003 234.763 19.7064 236.929C18.8298 239.094 18.3915 241.707 18.3915 244.767C18.3915 247.861 18.8126 250.508 19.6549 252.708C20.4971 254.908 21.7519 256.593 23.4192 257.762C25.0866 258.93 27.1578 259.515 29.633 259.515C31.816 259.515 33.6294 259.197 35.0733 258.561C36.5344 257.925 37.6259 257.022 38.3478 255.854C39.0697 254.685 39.4307 253.31 39.4307 251.728L41.9059 251.986H29.8393V241.776H53.2506V249.098C53.2506 253.911 52.2278 258.028 50.1824 261.449C48.1541 264.852 45.3523 267.465 41.777 269.287C38.2189 271.091 34.1365 271.994 29.5299 271.994C24.3904 271.994 19.8783 270.902 15.9936 268.719C12.109 266.536 9.07511 263.425 6.89212 259.386C4.72632 255.346 3.64342 250.542 3.64342 244.973C3.64342 240.607 4.3052 236.739 5.62874 233.37C6.96947 230.001 8.82587 227.157 11.1979 224.836C13.57 222.498 16.3116 220.737 19.4228 219.551C22.534 218.347 25.8687 217.746 29.4268 217.746C32.5551 217.746 35.4601 218.193 38.1415 219.086C40.8402 219.963 43.2208 221.218 45.2835 222.851C47.3634 224.467 49.0393 226.383 50.3113 228.601C51.5832 230.818 52.3567 233.25 52.6318 235.897H38.1415ZM72.0208 271.272H56.5508L73.9804 218.468H93.5757L111.005 271.272H95.5352L83.9843 233.009H83.5718L72.0208 271.272ZM69.1331 250.439H98.2167V261.165H69.1331V250.439ZM116.091 271.272V218.468H138.883C142.803 218.468 146.232 219.181 149.171 220.608C152.11 222.034 154.396 224.088 156.029 226.77C157.662 229.451 158.479 232.666 158.479 236.413C158.479 240.194 157.637 243.383 155.952 245.979C154.285 248.574 151.938 250.534 148.913 251.857C145.905 253.181 142.39 253.842 138.368 253.842H124.754V242.704H135.48C137.165 242.704 138.6 242.498 139.786 242.085C140.989 241.656 141.909 240.977 142.545 240.048C143.198 239.12 143.524 237.908 143.524 236.413C143.524 234.9 143.198 233.671 142.545 232.726C141.909 231.763 140.989 231.059 139.786 230.612C138.6 230.148 137.165 229.915 135.48 229.915H130.427V271.272H116.091ZM147.031 247.036L160.232 271.272H144.659L131.767 247.036H147.031ZM178.306 271.272H162.836L180.266 218.468H199.861L217.291 271.272H201.821L190.27 233.009H189.857L178.306 271.272ZM175.418 250.439H204.502V261.165H175.418V250.439ZM268.064 218.468V271.272H256.101L237.021 243.529H236.712V271.272H222.376V218.468H234.546L253.316 246.107H253.729V218.468H268.064ZM273.402 230.019V218.468H319.296V230.019H303.413V271.272H289.284V230.019H273.402ZM339.027 218.468V271.272H324.691V218.468H339.027ZM359.537 271.272H344.067L361.497 218.468H381.092L398.522 271.272H383.052L371.501 233.009H371.088L359.537 271.272ZM356.65 250.439H385.733V261.165H356.65V250.439Z" fill="white"/>
<path fill-rule="evenodd" clip-rule="evenodd" d="M282.348 299.107L247.723 367.667H350.225L384.762 299.107H282.348ZM330.252 204.251H432.544L495.018 80.2309V0.666504H222.635V80.2309H391.799V82.3813L330.252 204.251Z" fill="#F71052"/>
<path d="M22.2817 282.443L27.1741 297.5H43.0063L30.1978 306.806L35.0902 321.863L22.2817 312.557L9.4732 321.863L14.3656 306.806L1.55712 297.5H17.3893L22.2817 282.443Z" fill="#F71052"/>
<path d="M76.7595 282.443L81.7958 297.5H98.0936L84.9084 306.806L89.9447 321.863L76.7595 312.557L63.5743 321.863L68.6106 306.806L55.4254 297.5H71.7232L76.7595 282.443Z" fill="#F71052"/>
<path d="M131.237 282.443L136.13 297.5H151.962L139.153 306.806L144.046 321.863L131.237 312.557L118.429 321.863L123.321 306.806L110.513 297.5H126.345L131.237 282.443Z" fill="#F71052"/>
<path d="M185.715 282.443L190.751 297.5H207.049L193.864 306.806L198.9 321.863L185.715 312.557L172.53 321.863L177.566 306.806L164.381 297.5H180.679L185.715 282.443Z" fill="#F71052"/>
<path d="M240.193 282.443L245.085 297.5H260.917L248.109 306.806L253.001 321.863L240.193 312.557L227.384 321.863L232.277 306.806L219.468 297.5H235.3L240.193 282.443Z" fill="#F71052"/>
</svg>
