<svg width="565" height="223" viewBox="0 0 565 223" fill="none" xmlns="http://www.w3.org/2000/svg">
<path d="M0.305791 189.816L16.5238 92.1258H58.8815C66.3227 92.1258 72.4124 93.1275 77.1506 95.1309C81.9206 97.1343 85.2914 99.9645 87.263 103.622C89.2664 107.279 89.8547 111.587 89.0279 116.548C88.3919 120.11 87.0245 123.369 84.9257 126.327C82.8587 129.252 80.2352 131.733 77.0552 133.768C73.907 135.771 70.3931 137.155 66.5135 137.918L66.3227 138.872C70.5203 138.999 74.1773 140.048 77.2937 142.02C80.4101 143.96 82.6997 146.663 84.1625 150.129C85.6253 153.563 85.9751 157.57 85.2119 162.15C84.3215 167.492 82.1432 172.246 78.677 176.412C75.2108 180.578 70.7111 183.853 65.1779 186.238C59.6447 188.623 53.3483 189.816 46.2887 189.816H0.305791ZM30.4522 168.637H42.8543C47.2427 168.637 50.693 167.794 53.2052 166.109C55.7492 164.423 57.2597 161.959 57.7367 158.715C58.1183 156.426 57.9275 154.486 57.1643 152.896C56.4011 151.306 55.1132 150.097 53.3006 149.27C51.488 148.444 49.2143 148.03 46.4795 148.03H33.6958L30.4522 168.637ZM36.5578 131.621H47.4335C49.7231 131.621 51.8219 131.256 53.7299 130.524C55.6379 129.793 57.212 128.728 58.4522 127.328C59.6924 125.929 60.4715 124.244 60.7895 122.272C61.2665 119.219 60.5351 116.898 58.5953 115.308C56.6873 113.718 54.1115 112.923 50.8679 112.923H39.6106L36.5578 131.621ZM125.518 191.151C117.568 191.151 111.018 189.577 105.866 186.429C100.746 183.249 97.1528 178.829 95.0858 173.168C93.0188 167.476 92.6054 160.878 93.8456 153.373C95.0858 145.868 97.6775 139.285 101.621 133.625C105.564 127.933 110.636 123.512 116.837 120.364C123.038 117.184 130.129 115.594 138.111 115.594C146.03 115.594 152.549 117.184 157.668 120.364C162.82 123.512 166.429 127.933 168.496 133.625C170.595 139.285 171.024 145.868 169.784 153.373C168.544 160.878 165.936 167.476 161.961 173.168C157.986 178.829 152.898 183.249 146.697 186.429C140.528 189.577 133.468 191.151 125.518 191.151ZM128.762 171.69C131.052 171.69 133.135 170.942 135.011 169.448C136.919 167.953 138.541 165.822 139.876 163.056C141.244 160.289 142.245 156.998 142.881 153.182C143.517 149.334 143.613 146.043 143.168 143.308C142.722 140.541 141.8 138.411 140.401 136.916C139.002 135.422 137.157 134.674 134.868 134.674C132.578 134.674 130.479 135.422 128.571 136.916C126.663 138.411 125.041 140.541 123.706 143.308C122.37 146.043 121.384 149.334 120.748 153.182C120.112 156.998 120.001 160.289 120.415 163.056C120.86 165.822 121.782 167.953 123.181 169.448C124.612 170.942 126.472 171.69 128.762 171.69ZM209.471 191.151C201.521 191.151 194.97 189.577 189.818 186.429C184.698 183.249 181.105 178.829 179.038 173.168C176.971 167.476 176.558 160.878 177.798 153.373C179.038 145.868 181.63 139.285 185.573 133.625C189.516 127.933 194.588 123.512 200.789 120.364C206.99 117.184 214.082 115.594 222.063 115.594C229.982 115.594 236.501 117.184 241.62 120.364C246.772 123.512 250.381 127.933 252.448 133.625C254.547 139.285 254.976 145.868 253.736 153.373C252.496 160.878 249.888 167.476 245.913 173.168C241.938 178.829 236.85 183.249 230.649 186.429C224.48 189.577 217.421 191.151 209.471 191.151ZM212.714 171.69C215.004 171.69 217.087 170.942 218.963 169.448C220.871 167.953 222.493 165.822 223.828 163.056C225.196 160.289 226.197 156.998 226.833 153.182C227.469 149.334 227.565 146.043 227.12 143.308C226.674 140.541 225.752 138.411 224.353 136.916C222.954 135.422 221.109 134.674 218.82 134.674C216.53 134.674 214.431 135.422 212.523 136.916C210.615 138.411 208.994 140.541 207.658 143.308C206.322 146.043 205.337 149.334 204.701 153.182C204.065 156.998 203.953 160.289 204.367 163.056C204.812 165.822 205.734 167.953 207.133 169.448C208.564 170.942 210.425 171.69 212.714 171.69ZM333.3 140.398H309.641C309.768 138.872 309.498 137.568 308.83 136.487C308.162 135.406 307.224 134.579 306.016 134.006C304.839 133.434 303.503 133.148 302.009 133.148C299.401 133.148 297.032 133.736 294.901 134.913C292.771 136.058 291.578 137.568 291.324 139.444C291.165 140.176 291.403 140.859 292.039 141.495C292.675 142.131 294.345 142.72 297.048 143.26L311.549 145.931C318.799 147.267 324.078 149.7 327.385 153.23C330.724 156.728 331.933 161.355 331.01 167.11C330.152 172.103 327.958 176.396 324.428 179.989C320.898 183.583 316.414 186.349 310.976 188.289C305.57 190.197 299.592 191.151 293.041 191.151C281.498 191.151 272.848 188.846 267.092 184.235C261.368 179.624 258.761 173.598 259.269 166.156H284.837C284.9 168.541 285.695 170.338 287.222 171.546C288.78 172.723 290.847 173.343 293.423 173.407C296.221 173.502 298.67 172.946 300.769 171.737C302.867 170.497 304.044 168.955 304.298 167.11C304.394 166.061 303.933 165.266 302.915 164.725C301.929 164.185 300.037 163.644 297.239 163.104L284.646 160.814C277.395 159.51 272.117 156.903 268.809 152.991C265.502 149.048 264.357 144.023 265.375 137.918C266.202 133.052 268.173 128.966 271.29 125.659C274.438 122.352 278.572 119.855 283.692 118.17C288.812 116.453 294.726 115.594 301.436 115.594C312.407 115.594 320.707 117.804 326.336 122.225C331.996 126.613 334.318 132.671 333.3 140.398ZM393.187 116.548L389.944 135.628H341.671L344.915 116.548H393.187ZM357.126 98.9946H383.457L372.295 166.252C372.136 167.269 372.168 168.128 372.39 168.828C372.613 169.495 373.058 170.004 373.726 170.354C374.425 170.672 375.348 170.831 376.492 170.831C377.256 170.831 378.194 170.736 379.307 170.545C380.42 170.322 381.262 170.163 381.835 170.068L382.598 188.575C381.262 188.957 379.466 189.386 377.208 189.863C374.982 190.372 372.39 190.706 369.433 190.865C363.264 191.151 358.239 190.499 354.36 188.909C350.512 187.319 347.841 184.839 346.346 181.468C344.883 178.065 344.629 173.82 345.583 168.732L357.126 98.9946ZM460.838 92.1258L444.62 189.816H418.099L434.317 92.1258H460.838ZM482.565 189.816H453.945L502.409 92.1258H538.661L554.688 189.816H526.068L516.528 119.029H515.765L482.565 189.816ZM483.71 151.274H537.516L534.081 171.117H480.276L483.71 151.274Z" fill="white"/>
<path fill-rule="evenodd" clip-rule="evenodd" d="M514.282 2.02089C515.153 2.96729 515.59 4.23571 515.487 5.51958C512.912 37.7812 497.127 66.5765 478.844 90.5634C474.04 96.8658 469.036 102.871 464.02 108.547L464.02 147.504C464.02 152.24 462.144 156.782 458.806 160.131L440.649 178.345C435.738 183.272 427.351 180.999 425.581 174.262L418.434 147.061L410.059 138.659C408.262 136.857 408.262 133.935 410.059 132.133C411.855 130.331 414.768 130.331 416.565 132.133L422.516 138.103C423.92 136.712 425.377 135.277 426.877 133.797C435.487 125.311 445.562 115.379 455.624 104.127C455.848 103.801 456.113 103.504 456.411 103.246C461.531 97.4847 466.637 91.383 471.535 84.9572C488.277 62.9918 502.22 37.6799 505.775 9.97347C483.189 11.7682 457.782 25.0112 434.372 41.9847C426.718 47.5345 419.352 53.4273 412.458 59.3483C412.211 59.618 411.933 59.8581 411.629 60.0628C397.952 71.8776 386.179 83.7549 377.753 93.1988L385.449 100.92C387.246 102.722 387.246 105.644 385.449 107.446C383.653 109.248 380.74 109.248 378.943 107.446L368.871 97.3417L341.756 90.1726C335.04 88.3969 332.774 79.9835 337.685 75.057L355.842 56.8431C359.18 53.4942 363.708 51.6128 368.429 51.6128L407.32 51.6128C414.153 45.7786 421.428 39.9819 428.982 34.5043C454.497 16.0044 484.03 0.536255 510.902 0.536255C512.186 0.536256 513.411 1.0745 514.282 2.02089ZM396.891 60.8425H368.429C366.148 60.8425 363.961 61.7515 362.348 63.3696L344.437 81.3366L369.97 88.0873C376.888 80.255 386.126 70.71 396.891 60.8425ZM433.201 140.507C439.679 134.124 447.122 126.789 454.819 118.619V147.504C454.819 149.792 453.913 151.987 452.3 153.605L434.389 171.572L427.665 145.978C429.411 144.241 431.263 142.417 433.201 140.507Z" fill="#CC0F80"/>
<path fill-rule="evenodd" clip-rule="evenodd" d="M439.902 49.7012C446.932 42.649 458.33 42.649 465.36 49.7012C472.39 56.7534 472.39 68.1873 465.36 75.2395C458.33 82.2917 446.932 82.2917 439.902 75.2395C432.871 68.1873 432.871 56.7534 439.902 49.7012ZM458.854 56.2277C455.417 52.7799 449.844 52.7799 446.408 56.2277C442.971 59.6754 442.971 65.2653 446.408 68.713C449.844 72.1608 455.417 72.1608 458.854 68.713C462.291 65.2653 462.291 59.6754 458.854 56.2277Z" fill="#CC0F80"/>
<path d="M411.898 110.993C413.694 109.191 413.694 106.269 411.898 104.467C410.101 102.664 407.188 102.664 405.392 104.467L352.778 157.246C350.981 159.048 350.981 161.97 352.778 163.772C354.575 165.574 357.487 165.574 359.284 163.772L411.898 110.993Z" fill="#CC0F80"/>
<path d="M372.72 119.364C374.517 117.562 374.517 114.64 372.72 112.837C370.924 111.035 368.011 111.035 366.214 112.837L355.041 124.046C353.244 125.848 353.244 128.77 355.041 130.572C356.838 132.375 359.75 132.375 361.547 130.572L372.72 119.364Z" fill="#CC0F80"/>
<path d="M403.553 150.294C405.35 148.491 405.35 145.569 403.553 143.767C401.756 141.965 398.844 141.965 397.047 143.767L385.874 154.976C384.077 156.778 384.077 159.7 385.874 161.502C387.67 163.304 390.583 163.304 392.38 161.502L403.553 150.294Z" fill="#CC0F80"/>
<path d="M460.964 92.5402L444.746 190.23H418.225L434.443 92.5402H460.964Z" fill="white"/>
</svg>
